<svg width="50" height="50" viewBox="0 0 50 50" fill="none" xmlns="http://www.w3.org/2000/svg">
<rect width="50" height="50" fill="black"/>
<circle cx="25" cy="25" r="16.5" stroke="white" stroke-width="3"/>
<path d="M24.592 36.72V33.072C23.744 33.024 22.936 32.888 22.168 32.664C21.4 32.44 20.72 32.216 20.128 31.992L19.792 27.432H21.88L22.624 30.24C22.8 30.288 23.064 30.352 23.416 30.432C23.784 30.496 24.176 30.544 24.592 30.576V25.992C23.776 25.624 23.008 25.248 22.288 24.864C21.568 24.464 20.984 23.976 20.536 23.4C20.104 22.808 19.888 22.048 19.888 21.12C19.888 19.792 20.304 18.72 21.136 17.904C21.968 17.072 23.12 16.576 24.592 16.416V13.656H25.96V16.368C26.536 16.384 27.176 16.456 27.88 16.584C28.6 16.696 29.256 16.88 29.848 17.136L30.208 21.624H28.192L27.112 19.152C26.952 19.104 26.776 19.056 26.584 19.008C26.392 18.96 26.184 18.928 25.96 18.912V23.088C27.08 23.616 27.968 24.128 28.624 24.624C29.296 25.12 29.784 25.648 30.088 26.208C30.392 26.768 30.544 27.416 30.544 28.152C30.544 29.208 30.336 30.08 29.92 30.768C29.504 31.44 28.952 31.96 28.264 32.328C27.576 32.696 26.816 32.928 25.984 33.024V36.72H24.592ZM25.984 30.384C26.352 30.224 26.656 29.984 26.896 29.664C27.136 29.344 27.256 28.944 27.256 28.464C27.256 28.128 27.168 27.824 26.992 27.552C26.816 27.264 26.48 26.976 25.984 26.688V30.384ZM24.592 22.44V18.984C24.08 19.112 23.712 19.336 23.488 19.656C23.28 19.96 23.176 20.312 23.176 20.712C23.176 21.112 23.312 21.448 23.584 21.72C23.856 21.976 24.192 22.216 24.592 22.44Z" fill="white"/>
</svg>
